<?xml version="1.0" encoding="UTF-8" standalone="no"?>
<!DOCTYPE svg PUBLIC "-//W3C//DTD SVG 1.1//EN"
 "http://www.w3.org/Graphics/SVG/1.1/DTD/svg11.dtd">
<!-- Generated by graphviz version 8.0.5 (20230430.1635)
 -->
<!-- Title: G Pages: 1 -->
<svg width="815pt" height="121pt"
 viewBox="0.00 0.00 814.50 121.00" xmlns="http://www.w3.org/2000/svg" xmlns:xlink="http://www.w3.org/1999/xlink">
<g id="graph0" class="graph" transform="scale(1 1) rotate(0) translate(4 117)">
<title>G</title>
<polygon fill="white" stroke="none" points="-4,4 -4,-117 810.5,-117 810.5,4 -4,4"/>
<!-- data.aws_key_pair.key -->
<g id="node1" class="node">
<title>data.aws_key_pair.key</title>
<polygon fill="none" stroke="black" points="557.25,-59 404,-59 404,-23 557.25,-23 557.25,-59"/>
<text text-anchor="middle" x="480.62" y="-35.2" font-family="sans-serif" font-size="14.00">data.aws_key_pair.key</text>
</g>
<!-- aws_instance.private_instance -->
<g id="node2" class="node">
<title>aws_instance.private_instance</title>
<polygon fill="none" stroke="black" points="806.5,-101 606.75,-101 606.75,-65 806.5,-65 806.5,-101"/>
<text text-anchor="middle" x="706.62" y="-77.2" font-family="sans-serif" font-size="14.00">aws_instance.private_instance</text>
</g>
<!-- aws_instance.private_instance&#45;&gt;data.aws_key_pair.key -->
<g id="edge1" class="edge">
<title>aws_instance.private_instance&#45;&gt;data.aws_key_pair.key</title>
<path fill="none" stroke="black" d="M607.05,-64.52C594.12,-62.09 580.95,-59.62 568.24,-57.24"/>
<polygon fill="black" stroke="black" points="569.16,-53.66 558.68,-55.26 567.87,-60.54 569.16,-53.66"/>
</g>
<!-- aws_subnet.private_subnet -->
<g id="node4" class="node">
<title>aws_subnet.private_subnet</title>
<polygon fill="none" stroke="black" points="570.75,-113 390.5,-113 390.5,-77 570.75,-77 570.75,-113"/>
<text text-anchor="middle" x="480.62" y="-89.2" font-family="sans-serif" font-size="14.00">aws_subnet.private_subnet</text>
</g>
<!-- aws_instance.private_instance&#45;&gt;aws_subnet.private_subnet -->
<g id="edge2" class="edge">
<title>aws_instance.private_instance&#45;&gt;aws_subnet.private_subnet</title>
<path fill="none" stroke="black" d="M606.4,-88.32C598.35,-88.75 590.22,-89.18 582.16,-89.61"/>
<polygon fill="black" stroke="black" points="582.04,-86.17 572.24,-90.2 582.42,-93.16 582.04,-86.17"/>
</g>
<!-- aws_instance.public_instance -->
<g id="node3" class="node">
<title>aws_instance.public_instance</title>
<polygon fill="none" stroke="black" points="803.88,-36 609.38,-36 609.38,0 803.88,0 803.88,-36"/>
<text text-anchor="middle" x="706.62" y="-12.2" font-family="sans-serif" font-size="14.00">aws_instance.public_instance</text>
</g>
<!-- aws_instance.public_instance&#45;&gt;data.aws_key_pair.key -->
<g id="edge3" class="edge">
<title>aws_instance.public_instance&#45;&gt;data.aws_key_pair.key</title>
<path fill="none" stroke="black" d="M609,-27.92C595.46,-29.31 581.6,-30.73 568.26,-32.1"/>
<polygon fill="black" stroke="black" points="568.27,-28.69 558.68,-33.19 568.98,-35.65 568.27,-28.69"/>
</g>
<!-- aws_subnet.public_subnet -->
<g id="node5" class="node">
<title>aws_subnet.public_subnet</title>
<polygon fill="none" stroke="black" points="354.5,-63 179.5,-63 179.5,-27 354.5,-27 354.5,-63"/>
<text text-anchor="middle" x="267" y="-39.2" font-family="sans-serif" font-size="14.00">aws_subnet.public_subnet</text>
</g>
<!-- aws_instance.public_instance&#45;&gt;aws_subnet.public_subnet -->
<g id="edge4" class="edge">
<title>aws_instance.public_instance&#45;&gt;aws_subnet.public_subnet</title>
<path fill="none" stroke="black" d="M609.05,-9.99C546.49,-6.46 463.39,-4.92 390.5,-14 373.55,-16.11 355.59,-19.8 338.79,-23.92"/>
<polygon fill="black" stroke="black" points="338.33,-20.68 329.5,-26.53 340.05,-27.47 338.33,-20.68"/>
</g>
<!-- aws_subnet.private_subnet&#45;&gt;aws_subnet.public_subnet -->
<g id="edge5" class="edge">
<title>aws_subnet.private_subnet&#45;&gt;aws_subnet.public_subnet</title>
<path fill="none" stroke="black" d="M401.42,-76.52C386.93,-73.1 371.69,-69.5 356.9,-66"/>
<polygon fill="black" stroke="black" points="357.77,-62.38 347.23,-63.48 356.16,-69.19 357.77,-62.38"/>
</g>
<!-- aws_vpc.vpc_virginia -->
<g id="node6" class="node">
<title>aws_vpc.vpc_virginia</title>
<polygon fill="none" stroke="black" points="143.5,-63 0,-63 0,-27 143.5,-27 143.5,-63"/>
<text text-anchor="middle" x="71.75" y="-39.2" font-family="sans-serif" font-size="14.00">aws_vpc.vpc_virginia</text>
</g>
<!-- aws_subnet.public_subnet&#45;&gt;aws_vpc.vpc_virginia -->
<g id="edge6" class="edge">
<title>aws_subnet.public_subnet&#45;&gt;aws_vpc.vpc_virginia</title>
<path fill="none" stroke="black" d="M179.27,-45C171.13,-45 162.89,-45 154.8,-45"/>
<polygon fill="black" stroke="black" points="154.87,-41.5 144.87,-45 154.87,-48.5 154.87,-41.5"/>
</g>
</g>
</svg>
